<svg width="31" height="31" viewBox="0 0 31 31" fill="none" xmlns="http://www.w3.org/2000/svg">
<path d="M13.0237 0.0372106C5.84207 0.0372106 0 5.87928 0 13.0609C0 20.2426 5.84207 26.0846 13.0237 26.0846C15.2191 26.0846 17.3774 25.5637 19.2007 24.559C19.3467 24.7348 19.5087 24.8967 19.6844 25.0427L23.4055 28.7638C23.7491 29.1504 24.1681 29.4627 24.6367 29.6816C25.1054 29.9004 25.6138 30.0211 26.1308 30.0364C26.6478 30.0516 27.1625 29.961 27.6432 29.7701C28.1239 29.5792 28.5606 29.2921 28.9263 28.9263C29.2921 28.5606 29.5792 28.1239 29.7701 27.6432C29.961 27.1625 30.0516 26.6478 30.0363 26.1308C30.0211 25.6138 29.9004 25.1054 29.6816 24.6367C29.4627 24.1681 29.1504 23.7491 28.7638 23.4055L25.0427 19.6844C24.8615 19.5031 24.662 19.341 24.4474 19.2007C25.4521 17.3774 26.0846 15.2564 26.0846 13.0237C26.0846 5.84207 20.2426 0 13.0609 0L13.0237 0.0372106ZM13.0237 3.75827C18.196 3.75827 22.3264 7.88865 22.3264 13.0609C22.3264 15.5168 21.4333 17.7867 19.8705 19.4612C19.8333 19.4984 19.796 19.5356 19.7588 19.5728C19.5831 19.7188 19.4211 19.8808 19.2751 20.0565C17.6378 21.5449 15.4052 22.4008 12.9865 22.4008C7.81423 22.4008 3.68385 18.2704 3.68385 13.0981C3.68385 7.92586 7.81423 3.79548 12.9865 3.79548L13.0237 3.75827Z" fill="#494949"/>
</svg>
