<svg width="24" height="24" viewBox="0 0 24 24" fill="none" xmlns="http://www.w3.org/2000/svg">
<g id="date" clip-path="url(#clip0_178_757)">
<path id="Vector" d="M16.2539 10.8C17.0175 10.8 17.7812 10.8 18.5448 10.8C18.5448 10.2545 18.5448 9.81816 18.5448 9.27271C17.6721 9.27271 17.0175 9.27271 16.2539 9.27271C16.2539 9.81816 16.2539 10.2545 16.2539 10.8Z" fill="black"/>
<path id="Vector_2" d="M5.45508 14.6182C6.21871 14.6182 6.98235 14.6182 7.74599 14.6182C7.74599 14.0727 7.74599 13.6363 7.74599 13.0909C6.98235 13.0909 6.21871 13.0909 5.45508 13.0909C5.45508 13.6363 5.45508 14.1818 5.45508 14.6182Z" fill="black"/>
<path id="Vector_3" d="M10.9082 14.6182C11.6718 14.6182 12.4355 14.6182 13.1991 14.6182C13.1991 14.0727 13.1991 13.6363 13.1991 13.0909C12.4355 13.0909 11.6718 13.0909 10.9082 13.0909C10.9082 13.6363 10.9082 14.1818 10.9082 14.6182Z" fill="black"/>
<path id="Vector_4" d="M18.5451 13.0909C17.7815 13.0909 17.0178 13.0909 16.3633 13.0909C16.3633 13.6363 16.3633 14.1818 16.3633 14.6182C17.1269 14.6182 17.7815 14.6182 18.5451 14.6182C18.5451 14.0727 18.5451 13.6363 18.5451 13.0909Z" fill="black"/>
<path id="Vector_5" d="M5.45508 18.4364C6.32781 18.4364 6.98235 18.4364 7.74599 18.4364C7.74599 17.8909 7.74599 17.4546 7.74599 16.9091C6.98235 16.9091 6.21871 16.9091 5.45508 16.9091C5.45508 17.5637 5.45508 18 5.45508 18.4364Z" fill="black"/>
<path id="Vector_6" d="M10.8008 18.5455C11.5644 18.5455 12.3281 18.5455 13.0917 18.5455C13.0917 18 13.0917 17.5636 13.0917 17.0182C12.3281 17.0182 11.5644 17.0182 10.8008 17.0182C10.8008 17.5636 10.8008 18 10.8008 18.5455Z" fill="black"/>
<path id="Vector_7" d="M16.2539 18.5455C17.0175 18.5455 17.7812 18.5455 18.5448 18.5455C18.5448 18 18.5448 17.5636 18.5448 17.0182C17.7812 17.0182 17.0175 17.0182 16.2539 17.0182C16.2539 17.5636 16.2539 18.1091 16.2539 18.5455Z" fill="black"/>
<path id="Vector_8" d="M7.74599 9.27271C6.98235 9.27271 6.21871 9.27271 5.45508 9.27271C5.45508 9.81816 5.45508 10.2545 5.45508 10.6909C6.21871 10.6909 6.98235 10.6909 7.74599 10.6909C7.74599 10.2545 7.74599 9.81816 7.74599 9.27271Z" fill="black"/>
<path id="Vector_9" d="M13.1991 9.27271C12.4355 9.27271 11.6718 9.27271 10.9082 9.27271C10.9082 9.81816 10.9082 10.2545 10.9082 10.6909C11.6718 10.6909 12.4355 10.6909 13.1991 10.6909C13.1991 10.2545 13.1991 9.81816 13.1991 9.27271Z" fill="black"/>
<path id="Vector_10" d="M21.6 2.18182H18.7636V0.545455C18.7636 0.218182 18.5455 0 18.2182 0C17.8909 0 17.6727 0.218182 17.6727 0.545455V2.18182H12.5455V0.545455C12.5455 0.218182 12.3273 0 12 0C11.6727 0 11.4545 0.218182 11.4545 0.545455V2.18182H6.43636V0.545455C6.43636 0.218182 6.21818 0 5.89091 0C5.56364 0 5.34545 0.218182 5.34545 0.545455V2.18182H2.4C1.09091 2.18182 0 3.27273 0 4.58182V21.4909C0 22.9091 1.09091 24 2.4 24H21.4909C22.8 24 23.8909 22.9091 23.8909 21.6V4.58182C24 3.27273 22.9091 2.18182 21.6 2.18182ZM22.9091 21.6C22.9091 22.3636 22.2545 22.9091 21.6 22.9091H2.4C1.74545 22.9091 1.09091 22.2545 1.09091 21.6V4.58182C1.09091 3.92727 1.74545 3.27273 2.4 3.27273H5.23636V4.90909C5.34546 5.12727 5.56364 5.45455 5.89091 5.45455C6.21818 5.45455 6.43636 5.23636 6.43636 4.90909V3.27273H11.4545V4.90909C11.4545 5.12727 11.6727 5.45455 12 5.45455C12.3273 5.45455 12.5455 5.23636 12.5455 4.90909V3.27273H17.6727V4.90909C17.6727 5.23636 17.8909 5.45455 18.2182 5.45455C18.5455 5.45455 18.7636 5.23636 18.7636 4.90909L18.7636 3.27273H21.6C22.2545 3.27273 22.9091 3.92727 22.9091 4.58182V21.6Z" fill="black"/>
</g>
<defs>
<clipPath id="clip0_178_757">
<rect width="24" height="24" fill="white"/>
</clipPath>
</defs>
</svg>
