<svg width="24" height="24" viewBox="0 0 24 24" fill="none" xmlns="http://www.w3.org/2000/svg">
<g id="description 1">
<path id="Vector" d="M17.525 6.75469C17.525 6.34219 17.1875 6.00235 16.7727 6.00235H7.18203C6.76953 6.00235 6.42969 6.33985 6.42969 6.75469C6.42969 7.16719 6.76719 7.50704 7.18203 7.50704H16.7727C17.1875 7.50704 17.525 7.16719 17.525 6.75469ZM7.18203 10.5C6.76953 10.5 6.42969 10.8375 6.42969 11.2523C6.42969 11.6648 6.76719 12.0047 7.18203 12.0047H11.6609C12.0758 12.0047 12.4156 11.6672 12.4133 11.2523C12.4133 10.8398 12.0758 10.5 11.6609 10.5H7.18203ZM17.968 18.2063C17.9187 18.157 17.8648 18.1148 17.8063 18.0844C18.2305 17.4797 18.4789 16.7461 18.4789 15.9539C18.4789 13.8867 16.782 12.2133 14.6891 12.2133C12.5961 12.2133 10.8992 13.8867 10.8992 15.9539C10.8992 18.0211 12.5961 19.6945 14.6891 19.6945C15.4555 19.6945 16.1703 19.4695 16.768 19.0828C16.8031 19.1508 16.8477 19.2141 16.9039 19.2703L18.8563 21.2227C19.1492 21.5156 19.6273 21.5156 19.9203 21.2227C20.2133 20.9297 20.2133 20.4516 19.9203 20.1586L17.968 18.2063ZM14.6891 18.2203C13.4211 18.2203 12.3922 17.2055 12.3922 15.9539C12.3922 14.7023 13.4211 13.6875 14.6891 13.6875C15.957 13.6875 16.9859 14.7023 16.9859 15.9539C16.9859 17.2055 15.9594 18.2203 14.6891 18.2203Z" fill="black"/>
<path id="Vector_2" d="M13.5375 20.9859H5.18437C4.35938 20.9859 3.68437 20.3109 3.68437 19.4859V4.51874C3.68437 3.69374 4.35938 3.01874 5.18437 3.01874H18.0117C18.8367 3.01874 19.5117 3.69374 19.5117 4.51874V11.9812H19.5187V11.9836C19.5187 12.3984 19.8563 12.7359 20.2734 12.7359C20.6906 12.7359 21.0281 12.3984 21.0281 11.9836C21.0281 11.9555 21.0258 11.9297 21.0234 11.9016V4.4953C21.0234 2.8453 20.3766 1.4953 18.7266 1.4953H5.27344C3.62344 1.4953 2.27344 2.8453 2.27344 4.4953V19.4906C2.27344 21.1406 3.62344 22.4906 5.27344 22.4906H13.5281C13.9453 22.4906 14.2828 22.1531 14.2828 21.7383C14.2828 21.3258 13.95 20.9906 13.5375 20.9859Z" fill="black"/>
<path id="Vector_3" d="M19.5156 14.9836C19.5156 15.1831 19.5951 15.3745 19.7367 15.5156C19.8782 15.6567 20.0702 15.7359 20.2703 15.7359C20.4705 15.7359 20.6624 15.6567 20.804 15.5156C20.9455 15.3745 21.025 15.1831 21.025 14.9836C21.025 14.7841 20.9455 14.5927 20.804 14.4516C20.6624 14.3105 20.4705 14.2313 20.2703 14.2313C20.0702 14.2313 19.8782 14.3105 19.7367 14.4516C19.5951 14.5927 19.5156 14.7841 19.5156 14.9836Z" fill="black"/>
</g>
</svg>
