<svg width="16" height="17" viewBox="0 0 16 17" fill="none" xmlns="http://www.w3.org/2000/svg">
<g id="link 1">
<path id="Vector" d="M5.2541 7.24345C5.2541 6.76405 5.38823 6.28464 5.79061 5.92509L7.26602 4.60674L8.47317 3.52809C8.87556 3.16854 9.27794 3.04869 9.81446 3.04869C10.351 3.04869 10.7534 3.16854 11.1557 3.52809C11.9605 4.24719 11.9605 5.20599 11.1557 5.92509L8.47317 8.3221C8.07079 8.68165 7.66841 8.8015 7.13189 8.8015L6.05887 9.7603C6.32712 9.88015 6.72951 10 7.13189 10C8.07079 10 8.74143 9.64045 9.41207 9.16105L12.0946 6.76405C13.3018 5.68539 13.3018 3.88764 12.0946 2.80899C10.8875 1.73034 8.87556 1.73034 7.66841 2.80899L4.98584 5.20599C4.04694 5.92509 3.77869 7.1236 4.18107 8.20225L5.2541 7.24345Z" fill="#272636"/>
<path id="Vector_2" d="M10.782 8.75655C10.782 9.23596 10.6473 9.71536 10.243 10.0749L7.54793 12.4719C7.14367 12.8315 6.73941 12.9513 6.20039 12.9513C5.66138 12.9513 5.25712 12.8315 4.85286 12.4719C4.04434 11.7528 4.04434 10.794 4.85286 10.0749L7.54793 7.6779C7.95219 7.31835 8.4912 7.1985 9.03021 7.1985L10.1082 6.2397C9.56923 6.11985 9.29972 6 8.89546 6C7.95219 6 7.14367 6.35955 6.60465 6.83895L3.90959 9.23595C2.6968 10.3146 2.6968 12.1124 3.90959 13.191C5.12237 14.2697 7.14367 14.2697 8.35645 13.191L11.0515 10.794C11.9948 9.95506 12.2643 8.75655 11.7253 7.79775L10.782 8.75655Z" fill="#272636"/>
</g>
</svg>
