<svg width="16" height="17" viewBox="0 0 16 17" fill="none" xmlns="http://www.w3.org/2000/svg">
<g id="location 1">
<path id="Vector" d="M13.3531 5.01719C13.0594 4.33906 12.6391 3.73125 12.1047 3.20937C11.5703 2.6875 10.95 2.27969 10.2578 1.99375C9.54219 1.69687 8.78281 1.54688 8 1.54688C7.21719 1.54688 6.45781 1.69688 5.74219 1.99219C5.05 2.27812 4.42969 2.6875 3.89531 3.20781C3.36094 3.72969 2.94062 4.33906 2.64687 5.01562C2.34219 5.71875 2.1875 6.46562 2.1875 7.23438C2.1875 8.3375 2.45156 9.43594 2.97031 10.4953C3.3875 11.3469 3.97031 12.1766 4.70469 12.9656C5.95938 14.3125 7.275 15.1359 7.64844 15.3562C7.75625 15.4203 7.87812 15.4516 7.99844 15.4516C8.12031 15.4516 8.24062 15.4203 8.34844 15.3562C8.72187 15.1359 10.0375 14.3125 11.2922 12.9656C12.0266 12.1781 12.6094 11.3469 13.0266 10.4953C13.5484 9.4375 13.8125 8.34062 13.8125 7.23594C13.8125 6.46719 13.6578 5.72031 13.3531 5.01719ZM8 14.2531C6.97031 13.5984 3.3125 11.0063 3.3125 7.23594C3.3125 6.01875 3.79844 4.875 4.68125 4.0125C5.56719 3.14844 6.74531 2.67188 8 2.67188C9.25469 2.67188 10.4328 3.14844 11.3188 4.01406C12.2016 4.875 12.6875 6.01875 12.6875 7.23594C12.6875 11.0063 9.02969 13.5984 8 14.2531Z" fill="#848484"/>
<path id="Vector_2" d="M8 4.60938C6.48125 4.60938 5.25 5.84063 5.25 7.35938C5.25 8.87813 6.48125 10.1094 8 10.1094C9.51875 10.1094 10.75 8.87813 10.75 7.35938C10.75 5.84063 9.51875 4.60938 8 4.60938ZM9.2375 8.59688C8.90625 8.92656 8.46719 9.10938 8 9.10938C7.53281 9.10938 7.09375 8.92656 6.7625 8.59688C6.43281 8.26563 6.25 7.82656 6.25 7.35938C6.25 6.89219 6.43281 6.45312 6.7625 6.12187C7.09375 5.79062 7.53281 5.60938 8 5.60938C8.46719 5.60938 8.90625 5.79062 9.2375 6.12187C9.56875 6.45312 9.75 6.89219 9.75 7.35938C9.75 7.82656 9.56875 8.26563 9.2375 8.59688Z" fill="#848484"/>
</g>
</svg>
