<svg width="16" height="17" viewBox="0 0 16 17" fill="none" xmlns="http://www.w3.org/2000/svg">
<g id="Personal 1">
<path id="Vector" d="M14.9556 12.5803C14.9555 10.6143 13.7348 8.93379 12.0087 8.24837C12.8448 7.69112 13.3958 6.74202 13.3958 5.66387C13.3958 4.192 12.3692 2.96016 10.9914 2.63982C10.9786 2.63682 10.9666 2.63832 10.955 2.64278C10.9393 2.64148 10.9241 2.63809 10.9082 2.63809C10.6138 2.63809 10.3752 2.87619 10.3752 3.16973C10.3752 3.43498 10.5703 3.65294 10.8249 3.69301C10.8702 3.71134 10.9296 3.72549 10.932 3.72632C11.7299 3.99629 12.3041 4.74894 12.3041 5.63616C12.3041 6.62557 11.5898 7.44771 10.6476 7.61953C10.6463 7.61981 10.6451 7.62222 10.6438 7.62284C10.3304 7.64262 10.0815 7.89986 10.0815 8.21746C10.0815 8.53985 10.3377 8.80088 10.6578 8.81364C10.66 8.81461 10.662 8.81805 10.6643 8.81831C12.5591 9.01093 13.9024 10.6209 13.9024 12.5804C13.9024 12.8705 14.1382 13.1056 14.429 13.1056C14.7128 13.1056 14.9425 12.8812 14.9536 12.6008C14.9538 12.5981 14.9556 12.5961 14.9556 12.5933C14.9556 12.5923 14.9553 12.5913 14.9553 12.5902C14.9554 12.5869 14.9556 12.5837 14.9556 12.5804V12.5804V12.5803H14.9556ZM8.64484 8.33554C9.64312 7.66854 10.3008 6.5339 10.3008 5.24543C10.3008 3.19201 8.63187 1.52734 6.57306 1.52734C4.51429 1.52734 2.84535 3.19201 2.84535 5.24543C2.84535 6.53395 3.50308 7.66854 4.50128 8.33554C2.43751 9.15713 0.978516 11.1674 0.978516 13.5187C0.978516 13.6512 0.985967 13.7815 0.996152 13.9112H0.997127C0.997127 14.1973 1.22969 14.4293 1.51665 14.4293C1.80356 14.4293 2.03609 14.1973 2.03609 13.9112C2.03609 13.895 2.03284 13.8798 2.03132 13.864C2.02133 13.75 2.01269 13.6356 2.01269 13.5187C2.01269 11.0067 4.0544 8.97022 6.57301 8.97022C9.0917 8.97022 11.1334 11.0067 11.1334 13.5187C11.1334 13.6401 11.1248 13.7591 11.1141 13.8773C11.114 13.8835 11.1124 13.8892 11.1124 13.8953C11.1124 13.8971 11.1129 13.899 11.1129 13.9009C11.1125 13.9043 11.1126 13.9078 11.1124 13.9112H11.114C11.1226 14.1898 11.3505 14.4134 11.6319 14.4134C11.9133 14.4134 12.1412 14.1899 12.1498 13.9112H12.1508C12.1606 13.7815 12.1676 13.6511 12.1676 13.5189C12.1677 11.1674 10.7086 9.15713 8.64484 8.33554ZM6.57306 7.91613C5.09425 7.91613 3.8954 6.7204 3.8954 5.24543C3.8954 3.77042 5.09425 2.57473 6.57306 2.57473C8.05191 2.57473 9.25078 3.77042 9.25078 5.24543C9.25076 6.72038 8.05191 7.91613 6.57306 7.91613Z" fill="#242333"/>
</g>
</svg>
