<svg width="25" height="25" viewBox="0 0 25 25" fill="none" xmlns="http://www.w3.org/2000/svg">
<path id="Vector" d="M8.75 25C8.41848 25 8.10054 24.8683 7.86612 24.6339C7.6317 24.3995 7.5 24.0815 7.5 23.75V20H2.5C1.83696 20 1.20107 19.7366 0.732233 19.2678C0.263392 18.7989 0 18.163 0 17.5V2.5C0 1.83696 0.263392 1.20107 0.732233 0.732233C1.20107 0.263392 1.83696 0 2.5 0H22.5C23.163 0 23.7989 0.263392 24.2678 0.732233C24.7366 1.20107 25 1.83696 25 2.5V17.5C25 18.163 24.7366 18.7989 24.2678 19.2678C23.7989 19.7366 23.163 20 22.5 20H14.875L10.25 24.6375C10 24.875 9.6875 25 9.375 25H8.75ZM10 17.5V21.35L13.85 17.5H22.5V2.5H2.5V17.5H10Z" fill="#848484"/>
</svg>
