<svg width="24" height="24" viewBox="0 0 24 24" fill="none" xmlns="http://www.w3.org/2000/svg">
<g id="teacher 1">
<path id="Vector" d="M2.09985 15.3C1.80813 15.3 1.52838 15.184 1.32213 14.9778C1.11587 14.7715 1 14.4917 1 14.2C1 13.9083 1.11587 13.6285 1.32213 13.4222C1.52838 13.216 1.80813 13.1 2.09985 13.1H21.9002C22.1919 13.1 22.4716 13.216 22.6779 13.4222C22.8841 13.6285 23 13.9083 23 14.2C23 14.4917 22.8841 14.7715 22.6779 14.9778C22.4716 15.184 22.1919 15.3 21.9002 15.3H20.8001V20.8C20.8001 21.0889 20.7432 21.375 20.6327 21.6419C20.5221 21.9088 20.3601 22.1513 20.1558 22.3556C19.9515 22.5599 19.7089 22.722 19.442 22.8325C19.1751 22.9431 18.889 23 18.6001 23H5.3999C5.11099 23 4.8249 22.9431 4.55798 22.8325C4.29106 22.722 4.04853 22.5599 3.84424 22.3556C3.63995 22.1513 3.47789 21.9088 3.36733 21.6419C3.25677 21.375 3.19987 21.0889 3.19987 20.8V15.3H2.09985ZM18.6001 15.3H5.3999V20.8H18.6001V15.3ZM21.3556 7.8893C21.7164 8.25027 21.919 8.73969 21.919 9.25C21.919 9.76031 21.7164 10.2497 21.3556 10.6107L19.6363 12.3311C19.4799 12.4768 19.2731 12.5562 19.0593 12.5524C18.8456 12.5486 18.6417 12.462 18.4905 12.3109C18.3394 12.1597 18.2528 11.9558 18.249 11.7421C18.2452 11.5283 18.3246 11.3215 18.4703 11.1651L20.1896 9.4447C20.2374 9.39782 20.2664 9.33513 20.2713 9.26838C20.2761 9.20163 20.2565 9.13539 20.216 9.0821C20.1755 9.0288 20.117 8.99209 20.0514 8.97885C19.9858 8.96562 19.9176 8.97676 19.8596 9.0102L19.8002 9.0553L17.0238 11.8328C16.9396 11.9168 16.8382 11.9816 16.7266 12.0228C16.615 12.064 16.4959 12.0805 16.3773 12.0713C16.2587 12.0621 16.1435 12.0274 16.0396 11.9695C15.9357 11.9116 15.8455 11.832 15.7753 11.736C15.3416 11.1416 14.7736 10.6581 14.1175 10.3251C13.4613 9.99208 12.7358 9.81894 12 9.8198C10.5062 9.8198 9.13006 10.5238 8.25224 11.6986C8.18845 11.7881 8.10741 11.864 8.01387 11.9218C7.92034 11.9796 7.8162 12.0181 7.70757 12.0351C7.59894 12.052 7.48802 12.0471 7.38133 12.0206C7.27463 11.9941 7.17431 11.9465 7.08626 11.8807C6.99821 11.8148 6.9242 11.732 6.8686 11.6372C6.81299 11.5424 6.7769 11.4374 6.76244 11.3284C6.74799 11.2194 6.75547 11.1086 6.78443 11.0026C6.8134 10.8965 6.86327 10.7973 6.93112 10.7108C7.51949 9.92147 8.28425 9.28063 9.16435 8.83944C10.0444 8.39825 11.0155 8.16894 12 8.1698C13.6533 8.1698 15.201 8.8089 16.3583 9.91L16.4859 10.0365L18.6331 7.8893C18.8119 7.71053 19.0241 7.56871 19.2576 7.47196C19.4912 7.37521 19.7416 7.32541 19.9944 7.32541C20.2472 7.32541 20.4975 7.37521 20.7311 7.47196C20.9647 7.56871 21.1769 7.71053 21.3556 7.8893ZM12 1C12.8752 1 13.7146 1.34768 14.3335 1.96655C14.9524 2.58542 15.3 3.42479 15.3 4.3C15.3 5.17521 14.9524 6.01458 14.3335 6.63345C13.7146 7.25232 12.8752 7.6 12 7.6C11.1248 7.6 10.2854 7.25232 9.66651 6.63345C9.04763 6.01458 8.69995 5.17521 8.69995 4.3C8.69995 3.42479 9.04763 2.58542 9.66651 1.96655C10.2854 1.34768 11.1248 1 12 1ZM12 2.65C11.5624 2.65 11.1427 2.82384 10.8333 3.13327C10.5238 3.44271 10.35 3.86239 10.35 4.3C10.35 4.73761 10.5238 5.15729 10.8333 5.46673C11.1427 5.77616 11.5624 5.95 12 5.95C12.4376 5.95 12.8573 5.77616 13.1667 5.46673C13.4762 5.15729 13.65 4.73761 13.65 4.3C13.65 3.86239 13.4762 3.44271 13.1667 3.13327C12.8573 2.82384 12.4376 2.65 12 2.65Z" fill="black"/>
</g>
</svg>
